PathFileType	4	(X/Y/Z)	c:/Users/goper/Files/vsCode/490R/osim_files/C06/C06_ROM.trc
DataRate	CameraRate	NumFrames	NumMarkers	Units                	OrigDataRate	OrigDataStartFrame	OrigNumFrames
250.00	250.00	9	36	mm	250.0	2994	3421
                Frame#	Time	LPSIS			LASIS			LTH1			LTH2			LTH3			LTH4			LLFE			LMFE			LSH1			LSH2			LSH3			LSH4			LLMAL			LMMAL			LCAL			LMTP5			LTOE			LMTP1			RPSIS			RASIS			RTH1			RTH2			RTH3			RTH4			RLFE			RMFE			RSH1			RSH2			RSH3			RSH4			RLMAL			RMMAL			RCAL			RMTP1			RTOE			RMTP5		
		X1	Y1	Z1	X2	Y2	Z2	X3	Y3	Z3	X4	Y4	Z4	X5	Y5	Z5	X6	Y6	Z6	X7	Y7	Z7	X8	Y8	Z8	X9	Y9	Z9	X10	Y10	Z10	X11	Y11	Z11	X12	Y12	Z12	X13	Y13	Z13	X14	Y14	Z14	X15	Y15	Z15	X16	Y16	Z16	X17	Y17	Z17	X18	Y18	Z18	X19	Y19	Z19	X20	Y20	Z20	X21	Y21	Z21	X22	Y22	Z22	X23	Y23	Z23	X24	Y24	Z24	X25	Y25	Z25	X26	Y26	Z26	X27	Y27	Z27	X28	Y28	Z28	X29	Y29	Z29	X30	Y30	Z30	X31	Y31	Z31	X32	Y32	Z32	X33	Y33	Z33	X34	Y34	Z34	X35	Y35	Z35	X36	Y36	Z36

2994	11.97200	-380.06290	1014.18463	445.02698	-207.08754	977.17224	342.28671	-302.11493	805.36310	257.36722	-292.31369	744.18945	245.97736	-227.58202	808.25439	267.96591	-227.22168	748.09155	255.56573	-288.17084	486.19330	248.39148	-289.58145	446.99756	358.35733	-358.52118	379.87390	214.22614	-350.80139	337.15182	208.59221	-293.81949	386.35632	211.72589	-296.26349	342.57892	205.79933	-311.71033	92.17393	206.59494	-300.11249	97.27148	286.06354	-373.70303	66.11398	251.76027	-198.86287	31.04244	176.70085	-148.18578	56.97002	243.79874	-172.47359	36.43003	289.69589	-381.39081	1011.25635	518.32550	-196.67526	977.00317	582.91205	-293.30917	795.29657	677.35913	-283.69629	732.86151	680.23163	-219.20135	799.02661	664.30798	-220.28410	736.34192	669.95996	-285.86896	466.19312	664.38324	-264.19446	465.95151	557.81995	-344.87317	394.46548	687.41663	-342.87833	346.61353	695.06995	-284.45172	387.75110	686.19873	-291.07269	342.04755	692.98657	-313.69495	88.97957	682.83044	-289.29498	105.75270	604.88171	-376.09387	62.37314	636.88654	-173.28358	48.78899	609.35864	-153.08720	55.67559	649.51721	-197.24461	26.90780	714.22479
2995	11.97600	-379.74332	1014.32990	445.00864	-206.78917	977.14301	342.25397	-301.83255	805.38654	257.28290	-292.10776	744.19208	245.89131	-227.29831	808.22748	267.95615	-226.94391	748.07440	255.50941	-287.98578	486.17902	248.33946	-289.52060	447.00684	358.35440	-358.26926	379.87759	214.13681	-350.51514	337.10825	208.42400	-293.55817	386.34747	211.68387	-296.00381	342.57135	205.76634	-311.70264	92.19741	206.60652	-300.12650	97.26768	286.08768	-373.73108	66.10062	251.75488	-198.85861	31.05937	176.71527	-148.13399	57.02150	243.83992	-172.46468	36.43379	289.71228	-381.11890	1011.38379	518.27472	-196.42122	976.88165	582.84241	-293.23178	795.30481	677.29901	-283.67062	732.85272	680.18250	-219.10837	798.95624	664.24005	-220.25317	736.27118	669.88831	-285.93420	466.17679	664.38800	-264.33231	465.89606	557.78387	-344.94211	394.44379	687.43414	-342.95572	346.59274	695.07300	-284.51364	387.75143	686.20447	-291.13129	342.05017	692.98395	-313.70938	88.98043	682.82800	-289.33804	105.77493	604.88629	-376.08524	62.31838	636.88947	-173.30643	48.85472	609.38568	-153.10765	55.70248	649.56409	-197.24782	26.92230	714.23901
2996	11.98000	-379.34409	1014.43042	444.95111	-206.43719	977.13483	342.19177	-301.52570	805.40021	257.20459	-291.89413	744.19891	245.82190	-227.08643	808.18256	267.89682	-226.66740	748.05438	255.45947	-287.76965	486.15698	248.31235	-289.39294	447.00046	358.34256	-358.00833	379.88489	214.04919	-350.26544	337.10162	208.37642	-293.23849	386.33310	211.62260	-295.74185	342.62042	205.83513	-311.69052	92.21329	206.61298	-300.11649	97.26540	286.11761	-373.70041	66.12655	251.76514	-198.84477	31.08363	176.72810	-148.27965	56.86205	243.82040	-172.45766	36.43499	289.73590	-380.83575	1011.51385	518.20905	-196.12903	976.78284	582.77722	-293.15939	795.29510	677.23566	-283.59540	732.86206	680.15540	-219.02477	798.88013	664.17474	-220.20798	736.20441	669.86041	-285.97748	466.14075	664.38300	-264.43082	465.83344	557.73212	-344.98419	394.44742	687.44189	-342.94043	346.59378	695.06714	-284.55844	387.74460	686.18207	-291.16733	342.07370	692.96289	-313.72141	88.95656	682.83386	-289.34229	105.79613	604.88458	-376.08295	62.31101	636.91479	-173.30940	48.91450	609.42902	-153.10530	55.73899	649.60669	-197.26021	26.91500	714.26196
2997	11.98400	-378.93445	1014.54138	444.89301	-206.10741	977.09998	342.13184	-301.29193	805.41046	257.12463	-291.41470	744.23816	245.48378	-226.83429	808.13129	267.83606	-226.41203	748.02026	255.39093	-287.51352	486.12766	248.26790	-289.23022	447.00360	358.31390	-357.76785	379.90350	213.96672	-350.04367	337.12427	208.29448	-292.98685	386.28375	211.60773	-295.52634	342.58713	205.81352	-311.67502	92.23232	206.63068	-300.11987	97.24095	286.13638	-373.67783	66.09374	251.77682	-198.84605	31.08321	176.73012	-148.13412	56.94800	243.88589	-172.45169	36.42121	289.75262	-380.54593	1011.63324	518.15894	-195.90065	976.66003	582.73309	-293.06610	795.27863	677.15704	-283.63580	732.72949	680.15186	-218.96518	798.78571	664.11609	-220.17711	736.12579	669.82220	-286.01965	466.09952	664.37183	-264.52966	465.78210	557.67798	-345.00589	394.43021	687.41443	-343.00385	346.58990	695.07056	-284.62689	387.71463	686.18341	-291.19974	342.04367	692.95660	-313.73251	88.94260	682.83386	-289.34720	105.80658	604.88074	-376.09760	62.30846	636.92841	-173.33438	48.97498	609.47327	-153.12274	55.72876	649.67072	-197.28738	26.89170	714.30975
2998	11.98800	-378.49054	1014.63104	444.81979	-205.79190	977.02704	342.11737	-301.06003	805.40790	257.03198	-291.12619	744.22705	245.34747	-226.54483	808.07825	267.79288	-226.19147	747.99310	255.30803	-287.23425	486.09579	248.24042	-289.04044	446.99231	358.28311	-357.50940	379.92673	213.87454	-349.78351	337.10654	208.23346	-292.73328	386.26080	211.56779	-295.29547	342.54776	205.77747	-311.66525	92.20668	206.64272	-300.10172	97.22415	286.16797	-373.69540	66.11023	251.79239	-198.82397	31.07697	176.73892	-147.79440	57.15575	243.78284	-172.44003	36.39388	289.77341	-380.20584	1011.74274	518.10138	-195.65945	976.54639	582.66553	-292.96292	795.25970	677.09326	-283.66287	732.70337	680.12219	-218.87456	798.70435	664.04944	-220.15526	736.03522	669.79718	-286.04657	466.05374	664.36346	-264.63242	465.70691	557.62128	-345.04807	394.39447	687.40009	-343.05161	346.55798	695.04810	-284.69226	387.68069	686.18958	-291.28635	342.01358	692.95367	-313.73364	88.91451	682.83789	-289.37216	105.78197	604.88220	-376.08148	62.27924	636.92456	-173.35966	48.98983	609.51660	-153.15111	55.73019	649.72583	-197.30354	26.86136	714.33203
2999	11.99200	-378.26273	1014.75360	444.75119	-205.50441	976.96948	342.05786	-300.84067	805.41266	256.93927	-290.89978	744.23035	245.25510	-226.29599	808.04474	267.67603	-226.01793	747.95526	255.24788	-286.93222	486.06784	248.18959	-288.85938	446.98636	358.24750	-357.27237	379.95700	213.79095	-349.62662	337.15277	208.28828	-292.50714	386.22046	211.51857	-295.07373	342.44193	205.65459	-311.63895	92.21039	206.63429	-300.08820	97.20303	286.16849	-373.66232	66.07788	251.76573	-198.82709	31.07498	176.73709	-148.20360	56.84966	243.89336	-172.43716	36.36425	289.77542	-379.92416	1011.87451	518.07019	-195.44180	976.43225	582.60706	-292.90427	795.25922	677.02740	-283.59970	732.69946	680.08490	-218.81094	798.61469	663.97198	-220.16933	735.94775	669.76172	-286.06720	466.02051	664.32050	-264.74609	465.60944	557.55383	-345.12061	394.37433	687.33643	-343.09283	346.55264	694.99689	-284.74109	387.67194	686.13989	-291.32257	342.00662	692.90350	-313.73071	88.91542	682.82751	-289.37881	105.77627	604.86450	-376.09906	62.27906	636.92621	-173.38036	49.01961	609.54919	-153.14980	55.73037	649.75110	-197.30977	26.83281	714.33636
3000	11.99600	-378.03113	1014.87610	444.67221	-205.28094	976.90002	342.02612	-300.59854	805.40887	256.83533	-290.88696	744.19507	245.33656	-226.08195	808.00598	267.59872	-225.87273	747.89667	255.16115	-286.65817	486.01620	248.17242	-288.66272	447.00259	358.19400	-357.05075	379.98181	213.71442	-349.38461	337.10532	208.14096	-292.35852	386.18137	211.49814	-294.89029	342.40659	205.59995	-311.60983	92.21758	206.64238	-300.06674	97.21542	286.19226	-373.66037	66.07403	251.76242	-198.82518	31.04368	176.72980	-147.82468	57.03717	243.78207	-172.42923	36.34755	289.75476	-379.63754	1011.97296	518.02972	-195.20586	976.31537	582.52478	-292.83652	795.26917	676.95557	-283.53903	732.69696	680.06287	-218.72249	798.54175	663.88892	-220.14215	735.85919	669.69922	-286.07587	465.98944	664.29828	-264.81558	465.54453	557.48212	-345.16458	394.36545	687.29553	-343.14133	346.55127	694.95459	-284.79114	387.62903	686.11096	-291.36765	341.97235	692.87659	-313.73911	88.92232	682.81482	-289.39136	105.74828	604.85107	-376.07977	62.22401	636.90137	-173.38933	49.02533	609.57001	-153.15669	55.70175	649.78284	-197.32765	26.79078	714.36365
3001	12.00000	-377.87271	1015.02014	444.57544	-205.02374	976.85132	341.98355	-300.24124	805.33929	256.52869	-290.67908	744.17438	245.23030	-225.87723	807.97241	267.54736	-225.69781	747.82874	255.08504	-286.39023	485.98355	248.14149	-288.48816	447.01624	358.16208	-356.83759	380.00958	213.65619	-349.21884	337.21252	208.14174	-292.17776	386.14310	211.44905	-294.71814	342.39911	205.54935	-311.59299	92.22067	206.63113	-300.05518	97.22923	286.20187	-373.64465	66.07446	251.74207	-198.83279	31.02959	176.72021	-148.13434	56.77784	243.80109	-172.40778	36.34108	289.75226	-379.42355	1012.10150	517.96893	-195.00272	976.20703	582.45111	-292.76385	795.25598	676.90363	-283.51788	732.67322	680.01605	-218.65517	798.46368	663.80347	-220.10565	735.80035	669.64490	-286.10217	465.95551	664.23547	-264.88034	465.44803	557.39746	-345.21109	394.36432	687.24109	-343.17001	346.55194	694.89740	-284.85397	387.62021	686.08337	-291.43365	341.94888	692.83899	-313.72272	88.93106	682.79803	-289.38489	105.72990	604.83380	-376.05533	62.23404	636.89240	-173.39287	49.01712	609.59613	-153.17079	55.67237	649.82117	-197.30772	26.78587	714.35742
3002	12.00400	-377.69073	1015.13898	444.48346	-204.79027	976.80817	341.90262	-300.16287	805.41309	256.61771	-290.49396	744.14227	245.14223	-225.69093	807.94305	267.44397	-225.50385	747.80292	255.03784	-286.16660	485.94678	248.10724	-288.27896	447.04941	358.11594	-356.66818	380.01767	213.61308	-349.01865	337.17456	208.06808	-291.99615	386.10599	211.37827	-294.54327	342.38620	205.52707	-311.59943	92.20605	206.62476	-300.03577	97.23071	286.21317	-373.62485	66.07093	251.70183	-198.82608	31.03869	176.70795	-147.84418	56.97662	243.76376	-172.40573	36.31432	289.75342	-379.19339	1012.23010	517.89032	-194.76404	976.14124	582.36304	-292.67273	795.25037	676.83990	-283.47119	732.68311	679.97583	-218.57410	798.40814	663.71448	-220.04689	735.75110	669.58582	-286.12564	465.93484	664.16589	-264.92111	465.40878	557.33002	-345.29388	394.37463	687.14459	-343.22845	346.54718	694.83447	-284.89429	387.61316	686.04004	-291.48828	341.93774	692.78571	-313.71655	88.91981	682.78601	-289.35916	105.71748	604.81775	-376.04126	62.22168	636.86823	-173.41614	49.00322	609.61652	-153.15503	55.64719	649.84052	-197.29947	26.76479	714.35284
